<svg width="72" height="47" viewBox="0 0 72 47" fill="none" xmlns="http://www.w3.org/2000/svg">
<path d="M12.8555 0.765625H18.5098V28.9492H21.4102V33.6074H18.5098V46H12.8555V33.6074H0.462891V28.4219L12.8555 0.765625ZM12.8555 28.9492V9.96484L5.23828 28.9492H12.8555ZM46.1953 23.7344C46.1953 31.8594 45.4141 37.7188 43.8516 41.3125C42.3086 44.7891 39.6816 46.5273 35.9707 46.5273C32.2598 46.5273 29.623 44.7793 28.0605 41.2832C26.5176 37.8848 25.7461 31.918 25.7461 23.3828C25.7461 14.8477 26.5176 8.88086 28.0605 5.48242C29.6035 1.9668 32.2305 0.208984 35.9414 0.208984C39.3789 0.208984 41.918 1.75195 43.5586 4.83789C45.3164 8.09961 46.1953 14.3984 46.1953 23.7344ZM39.9844 23.7344C39.9844 16.8984 39.6914 12.1719 39.1055 9.55469C38.5195 6.95703 37.4551 5.6582 35.9121 5.6582C34.3691 5.6582 33.2949 6.94727 32.6895 9.52539C32.1035 12.1035 31.8105 16.7422 31.8105 23.4414C31.8105 30.1406 32.1035 34.7891 32.6895 37.3867C33.2949 39.9648 34.3691 41.2539 35.9121 41.2539C37.4355 41.2539 38.4902 39.9746 39.0762 37.416C39.6816 34.9746 39.9844 30.4141 39.9844 23.7344ZM62.6016 0.765625H68.2559V28.9492H71.1562V33.6074H68.2559V46H62.6016V33.6074H50.209V28.4219L62.6016 0.765625ZM62.6016 28.9492V9.96484L54.9844 28.9492H62.6016Z" fill="#254FDB" style="fill:#254FDB;fill:color(display-p3 0.1435 0.3094 0.8590);fill-opacity:1;"/>
</svg>
