<svg width="112" height="44" viewBox="0 0 112 44" fill="none" xmlns="http://www.w3.org/2000/svg">
<rect width="112" height="44" rx="4" fill="#F5F5F6" style="fill:#F5F5F6;fill:color(display-p3 0.9596 0.9606 0.9631);fill-opacity:1;"/>
<mask id="mask0_2681_13670" style="mask-type:alpha" maskUnits="userSpaceOnUse" x="10" y="10" width="24" height="24">
<rect x="10" y="10" width="24" height="24" fill="#D9D9D9" style="fill:#D9D9D9;fill:color(display-p3 0.8510 0.8510 0.8510);fill-opacity:1;"/>
</mask>
<g mask="url(#mask0_2681_13670)">
<path d="M21 27H23V23H27V21H23V17H21V21H17V23H21V27ZM22 32C20.6167 32 19.3167 31.7375 18.1 31.2125C16.8833 30.6875 15.825 29.975 14.925 29.075C14.025 28.175 13.3125 27.1167 12.7875 25.9C12.2625 24.6833 12 23.3833 12 22C12 20.6167 12.2625 19.3167 12.7875 18.1C13.3125 16.8833 14.025 15.825 14.925 14.925C15.825 14.025 16.8833 13.3125 18.1 12.7875C19.3167 12.2625 20.6167 12 22 12C23.3833 12 24.6833 12.2625 25.9 12.7875C27.1167 13.3125 28.175 14.025 29.075 14.925C29.975 15.825 30.6875 16.8833 31.2125 18.1C31.7375 19.3167 32 20.6167 32 22C32 23.3833 31.7375 24.6833 31.2125 25.9C30.6875 27.1167 29.975 28.175 29.075 29.075C28.175 29.975 27.1167 30.6875 25.9 31.2125C24.6833 31.7375 23.3833 32 22 32Z" fill="#D2D4DA" style="fill:#D2D4DA;fill:color(display-p3 0.8218 0.8316 0.8562);fill-opacity:1;"/>
</g>
<path d="M53.7031 24.2422H40.8906V23.0547H53.7031V24.2422ZM47.9922 28.8203H46.5312V23.6016H47.9922V28.8203ZM43.9531 17.2188H50.6094V15.3906H52.1016V21.4766H42.4844V15.3906H43.9531V17.2188ZM50.6094 20.2734V18.4062H43.9531V20.2734H50.6094ZM60.1406 25.0156H58.6484V21.9062H60.1406V25.0156ZM66.3828 25.4531H64.8984V14.8359H66.3828V25.4531ZM66.7188 28.5469H56.6016V27.3203H66.7188V28.5469ZM58.0938 27.6641H56.6016V24.4219H58.0938V27.6641ZM54.7969 21.2344C56.6823 21.2188 58.3229 21.1875 59.7188 21.1406C61.1146 21.0885 62.4557 20.9792 63.7422 20.8125L63.8281 21.8828C62.4635 22.1068 61.0286 22.2552 59.5234 22.3281C58.0234 22.401 56.4688 22.4323 54.8594 22.4219L54.6641 21.2344H54.7969ZM65.2656 24.1172H62.0703V23.0703H65.2656V24.1172ZM59.25 15.375C59.9271 15.3698 60.526 15.4714 61.0469 15.6797C61.5729 15.8828 61.9844 16.1719 62.2812 16.5469C62.5781 16.9219 62.7266 17.3516 62.7266 17.8359C62.7266 18.3307 62.5781 18.7604 62.2812 19.125C61.9844 19.4896 61.5729 19.7734 61.0469 19.9766C60.526 20.1797 59.9271 20.2812 59.25 20.2812C58.5677 20.2812 57.9609 20.1797 57.4297 19.9766C56.9036 19.7734 56.4948 19.4896 56.2031 19.125C55.9115 18.7604 55.7656 18.3307 55.7656 17.8359C55.7656 17.3516 55.9115 16.9219 56.2031 16.5469C56.4948 16.1667 56.9036 15.875 57.4297 15.6719C57.9609 15.4688 58.5677 15.3698 59.25 15.375ZM59.25 16.4844C58.8385 16.474 58.474 16.526 58.1562 16.6406C57.8438 16.75 57.6016 16.9089 57.4297 17.1172C57.263 17.3255 57.1797 17.5651 57.1797 17.8359C57.1797 18.1068 57.263 18.3464 57.4297 18.5547C57.6016 18.7578 57.8438 18.9167 58.1562 19.0312C58.474 19.1406 58.8385 19.1953 59.25 19.1953C59.651 19.1953 60.0052 19.1406 60.3125 19.0312C60.625 18.9167 60.8698 18.7578 61.0469 18.5547C61.224 18.3464 61.3125 18.1068 61.3125 17.8359C61.3125 17.5651 61.2214 17.3255 61.0391 17.1172C60.862 16.9089 60.6198 16.75 60.3125 16.6406C60.0052 16.526 59.651 16.474 59.25 16.4844ZM79.5703 28.8516H78.1094V23.7266H79.5703V28.8516ZM85.2344 24.4922H72.4688V23.2656H85.2344V24.4922ZM79.4062 17.6172C79.4062 18.4036 79.1562 19.125 78.6562 19.7812C78.1615 20.4323 77.487 20.9766 76.6328 21.4141C75.7786 21.8464 74.8229 22.1406 73.7656 22.2969L73.2188 21.1172C74.1146 21.0026 74.9349 20.7682 75.6797 20.4141C76.4245 20.0599 77.0156 19.638 77.4531 19.1484C77.8906 18.6589 78.1094 18.1484 78.1094 17.6172V17.25H79.4062V17.6172ZM79.5859 17.6172C79.5859 18.138 79.8021 18.6458 80.2344 19.1406C80.6667 19.6354 81.2552 20.0599 82 20.4141C82.7448 20.7682 83.5625 21.0026 84.4531 21.1172L83.9141 22.2969C82.8672 22.151 81.9141 21.8542 81.0547 21.4062C80.2005 20.9583 79.526 20.4089 79.0312 19.7578C78.5365 19.1016 78.2891 18.388 78.2891 17.6172V17.25H79.5859V17.6172ZM84.0234 17.7109H73.6875V16.5234H84.0234V17.7109ZM79.5703 16.9297H78.1094V14.8281H79.5703V16.9297ZM97.2031 28.8125H95.7266V14.8203H97.2031V28.8125ZM99.375 21.6484H96.8203V20.4141H99.375V21.6484ZM93.5391 16.3047C93.5391 17.7057 93.3203 19.0156 92.8828 20.2344C92.4505 21.4479 91.7578 22.5677 90.8047 23.5938C89.8568 24.6146 88.6354 25.4948 87.1406 26.2344L86.3125 25.0781C87.599 24.4323 88.6693 23.6875 89.5234 22.8438C90.3776 21.9948 91.0182 21.0495 91.4453 20.0078C91.8724 18.9609 92.0859 17.8125 92.0859 16.5625V16.3047H93.5391ZM92.8359 17.5391H87V16.3047H92.8359V17.5391Z" fill="#5A6379" style="fill:#5A6379;fill:color(display-p3 0.3548 0.3873 0.4732);fill-opacity:1;"/>
</svg>
