<svg width="44" height="44" viewBox="0 0 44 44" fill="none" xmlns="http://www.w3.org/2000/svg">
<mask id="mask0_224_4437" style="mask-type:alpha" maskUnits="userSpaceOnUse" x="0" y="0" width="44" height="44">
<rect width="44" height="44" fill="#D9D9D9" style="fill:#D9D9D9;fill:color(display-p3 0.8510 0.8510 0.8510);fill-opacity:1;"/>
</mask>
<g mask="url(#mask0_224_4437)">
<path d="M15.4007 30.5315L22.0007 23.9315L28.6007 30.5315L30.5325 28.5997L23.9325 21.9997L30.5325 15.3997L28.6007 13.4678L22.0007 20.0678L15.4007 13.4678L13.4688 15.3997L20.0688 21.9997L13.4688 28.5997L15.4007 30.5315ZM22.0039 39.4163C19.5949 39.4163 17.3305 38.9592 15.2109 38.045C13.0913 37.1308 11.2475 35.8901 9.67973 34.3229C8.11193 32.7557 6.87061 30.9127 5.95578 28.794C5.04125 26.6753 4.58398 24.4116 4.58398 22.0029C4.58398 19.5939 5.0411 17.3296 5.95532 15.2099C6.86954 13.0903 8.11025 11.2466 9.67744 9.67876C11.2446 8.11095 13.0876 6.86963 15.2063 5.9548C17.325 5.04027 19.5887 4.58301 21.9974 4.58301C24.4064 4.58301 26.6708 5.04012 28.7904 5.95434C30.91 6.86856 32.7538 8.10927 34.3216 9.67647C35.8894 11.2437 37.1307 13.0866 38.0455 15.2053C38.9601 17.3241 39.4173 19.5878 39.4173 21.9965C39.4173 24.4055 38.9602 26.6698 38.046 28.7894C37.1318 30.9091 35.8911 32.7528 34.3239 34.3206C32.7567 35.8884 30.9137 37.1297 28.795 38.0445C26.6763 38.9591 24.4126 39.4163 22.0039 39.4163ZM22.0007 36.6663C26.0951 36.6663 29.5632 35.2455 32.4048 32.4038C35.2465 29.5622 36.6673 26.0941 36.6673 21.9997C36.6673 17.9052 35.2465 14.4372 32.4048 11.5955C29.5632 8.75384 26.0951 7.33301 22.0007 7.33301C17.9062 7.33301 14.4382 8.75384 11.5965 11.5955C8.75482 14.4372 7.33398 17.9052 7.33398 21.9997C7.33398 26.0941 8.75482 29.5622 11.5965 32.4038C14.4382 35.2455 17.9062 36.6663 22.0007 36.6663Z" fill="#EDF2FD" style="fill:#EDF2FD;fill:color(display-p3 0.9280 0.9485 0.9930);fill-opacity:1;"/>
</g>
</svg>
