<svg width="212" height="224" viewBox="0 0 212 224" fill="none" xmlns="http://www.w3.org/2000/svg">
<rect width="212" height="224" rx="8" fill="white" style="fill:white;fill-opacity:1;"/>
<path d="M96.3848 107.733C96.3848 109.087 96.2207 110.361 95.8926 111.557C95.5645 112.752 95.0693 113.81 94.4072 114.729C93.7451 115.649 92.9248 116.35 91.9463 116.83L90.5664 115.011C91.4512 114.606 92.1895 114.026 92.7812 113.271C93.3789 112.509 93.8242 111.653 94.1172 110.704C94.416 109.755 94.5654 108.765 94.5654 107.733V105.343H96.3848V107.733ZM96.7979 107.733C96.7979 108.729 96.9385 109.682 97.2197 110.59C97.501 111.498 97.9258 112.315 98.4941 113.042C99.0684 113.769 99.7656 114.334 100.586 114.738L99.2324 116.522C98.2949 116.048 97.5098 115.368 96.877 114.483C96.2441 113.599 95.7754 112.582 95.4707 111.434C95.166 110.285 95.0137 109.052 95.0137 107.733V105.343H96.7979V107.733ZM103.539 120.117H101.289V104.104H103.539V120.117ZM105.912 112.189H103.047V110.282H105.912V112.189ZM112.302 107.285C112.302 108.305 112.126 109.263 111.774 110.159C111.429 111.056 110.91 111.838 110.219 112.506C109.533 113.168 108.695 113.663 107.705 113.991L106.545 112.233C107.395 111.958 108.112 111.562 108.698 111.047C109.284 110.531 109.718 109.951 109.999 109.307C110.286 108.662 110.43 107.988 110.43 107.285V105.888H112.302V107.285ZM112.706 107.285C112.706 107.941 112.844 108.577 113.119 109.192C113.395 109.802 113.819 110.35 114.394 110.836C114.974 111.316 115.683 111.683 116.521 111.935L115.387 113.701C114.414 113.385 113.588 112.91 112.908 112.277C112.229 111.639 111.719 110.895 111.379 110.045C111.045 109.189 110.878 108.27 110.878 107.285V105.888H112.706V107.285ZM115.932 107.057H107.134V105.264H115.932V107.057ZM119.86 115.696H117.619V104.139H119.86V115.696ZM120.3 119.845H109.146V118.034H120.3V119.845ZM111.414 118.939H109.146V114.642H111.414V118.939Z" fill="#DEDEDE" style="fill:#DEDEDE;fill:color(display-p3 0.8725 0.8725 0.8725);fill-opacity:1;"/>
</svg>
