<svg width="54" height="30" viewBox="0 0 54 30" fill="none" xmlns="http://www.w3.org/2000/svg">
<path d="M16.197 28.176C18.256 25.073 18.691 24.232 16.98 23.217C16.284 22.811 15.037 22.608 13.5 22.608C10.629 22.608 6.772 23.275 3.756 24.203L2.596 20.085C6.134 18.838 10.368 18.2 14.08 18.2C16.951 18.2 19.474 18.577 21.127 19.36C24.23 20.81 25.274 23.942 21.417 29.51L16.197 28.176ZM18.053 4.889C17.85 5.788 17.792 6.6 18.111 7.151C18.43 7.76 19.242 7.963 20.141 7.963C21.185 7.963 22.345 7.702 23.041 7.383L24.056 11.327C22.142 11.907 20.373 12.168 18.778 12.168C17.618 12.168 16.545 12.023 15.675 11.733V13.328H25.1V17.533H0.74V13.328H10.02V12.081C9.44 12.139 8.86 12.168 8.309 12.168C6.134 12.168 4.104 11.704 2.944 10.602C0.624 8.34 1.349 5.005 2.886 0.770998H12.079V4.889H6.859C6.656 5.643 6.627 6.339 6.975 6.948C7.41 7.702 8.483 7.934 9.556 7.934C10.455 7.934 11.325 7.76 11.818 7.615L12.282 9.993H13.268C11.731 7.789 12.456 4.831 13.964 0.770998H23.157V4.889H18.053ZM44.0359 28.176C46.0949 25.073 46.5299 24.232 44.8189 23.217C44.1229 22.811 42.8759 22.608 41.3389 22.608C38.4679 22.608 34.6109 23.275 31.5949 24.203L30.4349 20.085C33.9729 18.838 38.2069 18.2 41.9189 18.2C44.7899 18.2 47.3129 18.577 48.9659 19.36C52.0689 20.81 53.1129 23.942 49.2559 29.51L44.0359 28.176ZM45.8919 4.889C45.6889 5.788 45.6309 6.6 45.9499 7.151C46.2689 7.76 47.0809 7.963 47.9799 7.963C49.0239 7.963 50.1839 7.702 50.8799 7.383L51.8949 11.327C49.9809 11.907 48.2119 12.168 46.6169 12.168C45.4569 12.168 44.3839 12.023 43.5139 11.733V13.328H52.9389V17.533H28.5789V13.328H37.8589V12.081C37.2789 12.139 36.6989 12.168 36.1479 12.168C33.9729 12.168 31.9429 11.704 30.7829 10.602C28.4629 8.34 29.1879 5.005 30.7249 0.770998H39.9179V4.889H34.6979C34.4949 5.643 34.4659 6.339 34.8139 6.948C35.2489 7.702 36.3219 7.934 37.3949 7.934C38.2939 7.934 39.1639 7.76 39.6569 7.615L40.1209 9.993H41.1069C39.5699 7.789 40.2949 4.831 41.8029 0.770998H50.9959V4.889H45.8919Z" fill="#071F75" style="fill:#071F75;fill:color(display-p3 0.0287 0.1208 0.4587);fill-opacity:1;"/>
</svg>
