<svg width="48" height="26" viewBox="0 0 48 26" fill="none" xmlns="http://www.w3.org/2000/svg">
<path d="M14.459 24.744C16.305 21.962 16.695 21.208 15.161 20.298C14.537 19.934 13.419 19.752 12.041 19.752C9.46702 19.752 6.00902 20.35 3.30502 21.182L2.26502 17.49C5.43702 16.372 9.23302 15.8 12.561 15.8C15.135 15.8 17.397 16.138 18.879 16.84C21.661 18.14 22.597 20.948 19.139 25.94L14.459 24.744ZM16.123 3.866C15.941 4.672 15.889 5.4 16.175 5.894C16.461 6.44 17.189 6.622 17.995 6.622C18.931 6.622 19.971 6.388 20.595 6.102L21.505 9.638C19.789 10.158 18.203 10.392 16.773 10.392C15.733 10.392 14.771 10.262 13.991 10.002V11.432H22.441V15.202H0.601016V11.432H8.92102V10.314C8.40102 10.366 7.88102 10.392 7.38702 10.392C5.43702 10.392 3.61702 9.976 2.57702 8.988C0.497016 6.96 1.14702 3.97 2.52502 0.173998H10.767V3.866H6.08702C5.90502 4.542 5.87902 5.166 6.19102 5.712C6.58102 6.388 7.54302 6.596 8.50502 6.596C9.31102 6.596 10.091 6.44 10.533 6.31L10.949 8.442H11.833C10.455 6.466 11.105 3.814 12.457 0.173998H20.699V3.866H16.123ZM39.418 24.744C41.264 21.962 41.654 21.208 40.12 20.298C39.496 19.934 38.378 19.752 37 19.752C34.426 19.752 30.968 20.35 28.264 21.182L27.224 17.49C30.396 16.372 34.192 15.8 37.52 15.8C40.094 15.8 42.356 16.138 43.838 16.84C46.62 18.14 47.556 20.948 44.098 25.94L39.418 24.744ZM41.082 3.866C40.9 4.672 40.848 5.4 41.134 5.894C41.42 6.44 42.148 6.622 42.954 6.622C43.89 6.622 44.93 6.388 45.554 6.102L46.464 9.638C44.748 10.158 43.162 10.392 41.732 10.392C40.692 10.392 39.73 10.262 38.95 10.002V11.432H47.4V15.202H25.56V11.432H33.88V10.314C33.36 10.366 32.84 10.392 32.346 10.392C30.396 10.392 28.576 9.976 27.536 8.988C25.456 6.96 26.106 3.97 27.484 0.173998H35.726V3.866H31.046C30.864 4.542 30.838 5.166 31.15 5.712C31.54 6.388 32.502 6.596 33.464 6.596C34.27 6.596 35.05 6.44 35.492 6.31L35.908 8.442H36.792C35.414 6.466 36.064 3.814 37.416 0.173998H45.658V3.866H41.082Z" fill="white" style="fill:white;fill-opacity:1;"/>
</svg>
