<svg width="22" height="21" viewBox="0 0 22 21" fill="none" xmlns="http://www.w3.org/2000/svg">
<mask id="mask0_845_6259" style="mask-type:alpha" maskUnits="userSpaceOnUse" x="0" y="0" width="22" height="21">
<rect x="0.5" width="21" height="21" fill="#D9D9D9" style="fill:#D9D9D9;fill:color(display-p3 0.8510 0.8510 0.8510);fill-opacity:1;"/>
</mask>
<g mask="url(#mask0_845_6259)">
<path d="M11 10.231C10.1578 10.231 9.43689 9.93112 8.83722 9.33146C8.23741 8.73164 7.9375 8.01064 7.9375 7.16846C7.9375 6.32627 8.23741 5.60534 8.83722 5.00568C9.43689 4.40586 10.1578 4.10596 11 4.10596C11.8422 4.10596 12.5631 4.40586 13.1628 5.00568C13.7626 5.60534 14.0625 6.32627 14.0625 7.16846C14.0625 8.01064 13.7626 8.73164 13.1628 9.33146C12.5631 9.93112 11.8422 10.231 11 10.231ZM4.4375 16.8945V14.9492C4.4375 14.5207 4.55388 14.1239 4.78663 13.7587C5.01938 13.3936 5.33044 13.1128 5.71981 12.9166C6.5846 12.4926 7.45705 12.1746 8.33716 11.9626C9.21726 11.7505 10.1049 11.6445 11 11.6445C11.8951 11.6445 12.7827 11.7505 13.6628 11.9626C14.5429 12.1746 15.4154 12.4926 16.2802 12.9166C16.6696 13.1128 16.9806 13.3936 17.2134 13.7587C17.4461 14.1239 17.5625 14.5207 17.5625 14.9492V16.8945H4.4375ZM5.75 15.582H16.25V14.9492C16.25 14.772 16.1987 14.6079 16.096 14.457C15.9933 14.3062 15.854 14.1831 15.678 14.0877C14.924 13.7164 14.1553 13.4351 13.3719 13.2438C12.5883 13.0526 11.7977 12.957 11 12.957C10.2023 12.957 9.41166 13.0526 8.62809 13.2438C7.84468 13.4351 7.07599 13.7164 6.32203 14.0877C6.14601 14.1831 6.00667 14.3062 5.904 14.457C5.80133 14.6079 5.75 14.772 5.75 14.9492V15.582ZM11 8.91846C11.4812 8.91846 11.8932 8.7471 12.2359 8.40439C12.5786 8.06169 12.75 7.64971 12.75 7.16846C12.75 6.68721 12.5786 6.27523 12.2359 5.93252C11.8932 5.58981 11.4812 5.41846 11 5.41846C10.5188 5.41846 10.1068 5.58981 9.76406 5.93252C9.42135 6.27523 9.25 6.68721 9.25 7.16846C9.25 7.64971 9.42135 8.06169 9.76406 8.40439C10.1068 8.7471 10.5188 8.91846 11 8.91846Z" fill="#5A6379" style="fill:#5A6379;fill:color(display-p3 0.3548 0.3873 0.4732);fill-opacity:1;"/>
</g>
</svg>
