<svg width="15" height="15" viewBox="0 0 15 15" fill="none" xmlns="http://www.w3.org/2000/svg">
<path d="M12.41 5.58L11.07 13.58C11.049 13.6948 10.9885 13.7986 10.899 13.8735C10.8095 13.9483 10.6967 13.9896 10.58 13.99H4.42C4.30332 13.9896 4.19046 13.9483 4.10097 13.8735C4.01148 13.7986 3.951 13.6948 3.93 13.58L2.59 5.58C2.57846 5.5088 2.58246 5.43595 2.60172 5.36644C2.62099 5.29693 2.65506 5.23241 2.70161 5.17731C2.74816 5.12221 2.80608 5.07784 2.8714 5.04723C2.93671 5.01663 3.00787 5.00051 3.08 5H11.91C11.983 4.99906 12.0553 5.0141 12.1218 5.04407C12.1883 5.07404 12.2475 5.11822 12.2952 5.17349C12.3428 5.22876 12.3778 5.29379 12.3976 5.36402C12.4175 5.43425 12.4217 5.50797 12.41 5.58ZM13 3.5C13 3.63261 12.9473 3.75979 12.8536 3.85355C12.7598 3.94732 12.6326 4 12.5 4H2.5C2.36739 4 2.24021 3.94732 2.14645 3.85355C2.05268 3.75979 2 3.63261 2 3.5C2 3.36739 2.05268 3.24021 2.14645 3.14645C2.24021 3.05268 2.36739 3 2.5 3H5V1.5C5 1.36739 5.05268 1.24021 5.14645 1.14645C5.24021 1.05268 5.36739 1 5.5 1H9.5C9.63261 1 9.75979 1.05268 9.85355 1.14645C9.94732 1.24021 10 1.36739 10 1.5V3H12.5C12.6326 3 12.7598 3.05268 12.8536 3.14645C12.9473 3.24021 13 3.36739 13 3.5ZM9 3V2H6V3H9Z" fill="black"/>
</svg>
