<svg width="126" height="44" viewBox="0 0 126 44" fill="none" xmlns="http://www.w3.org/2000/svg">
<rect width="126" height="44" rx="4" fill="#F5F5F6" style="fill:#F5F5F6;fill:color(display-p3 0.9596 0.9606 0.9631);fill-opacity:1;"/>
<mask id="mask0_2681_13664" style="mask-type:alpha" maskUnits="userSpaceOnUse" x="10" y="10" width="24" height="24">
<rect x="10" y="10" width="24" height="24" fill="#D9D9D9" style="fill:#D9D9D9;fill:color(display-p3 0.8510 0.8510 0.8510);fill-opacity:1;"/>
</mask>
<g mask="url(#mask0_2681_13664)">
<path d="M21 27H23V23H27V21H23V17H21V21H17V23H21V27ZM22 32C20.6167 32 19.3167 31.7375 18.1 31.2125C16.8833 30.6875 15.825 29.975 14.925 29.075C14.025 28.175 13.3125 27.1167 12.7875 25.9C12.2625 24.6833 12 23.3833 12 22C12 20.6167 12.2625 19.3167 12.7875 18.1C13.3125 16.8833 14.025 15.825 14.925 14.925C15.825 14.025 16.8833 13.3125 18.1 12.7875C19.3167 12.2625 20.6167 12 22 12C23.3833 12 24.6833 12.2625 25.9 12.7875C27.1167 13.3125 28.175 14.025 29.075 14.925C29.975 15.825 30.6875 16.8833 31.2125 18.1C31.7375 19.3167 32 20.6167 32 22C32 23.3833 31.7375 24.6833 31.2125 25.9C30.6875 27.1167 29.975 28.175 29.075 29.075C28.175 29.975 27.1167 30.6875 25.9 31.2125C24.6833 31.7375 23.3833 32 22 32Z" fill="#D2D4DA" style="fill:#D2D4DA;fill:color(display-p3 0.8218 0.8316 0.8562);fill-opacity:1;"/>
</g>
<path d="M52.6016 22.8047H51.125V14.8359H52.6016V22.8047ZM52.6016 28.6484H43.4062V23.5234H52.6016V28.6484ZM44.8672 27.4453H51.1484V24.7109H44.8672V27.4453ZM45.0078 15.5391C45.7161 15.5391 46.3516 15.6797 46.9141 15.9609C47.4818 16.237 47.9271 16.6276 48.25 17.1328C48.5729 17.6328 48.7344 18.2057 48.7344 18.8516C48.7344 19.4818 48.5729 20.0469 48.25 20.5469C47.9271 21.0469 47.4818 21.4375 46.9141 21.7188C46.3516 22 45.7161 22.1406 45.0078 22.1406C44.2995 22.1406 43.6615 22 43.0938 21.7188C42.5312 21.4375 42.0885 21.0469 41.7656 20.5469C41.4427 20.0469 41.2812 19.4818 41.2812 18.8516C41.2812 18.2057 41.4427 17.6328 41.7656 17.1328C42.0885 16.6276 42.5312 16.237 43.0938 15.9609C43.6615 15.6797 44.2995 15.5391 45.0078 15.5391ZM45.0078 16.7969C44.5703 16.7917 44.1771 16.875 43.8281 17.0469C43.4844 17.2135 43.2161 17.4557 43.0234 17.7734C42.8307 18.0859 42.7344 18.4453 42.7344 18.8516C42.7344 19.2422 42.8307 19.5938 43.0234 19.9062C43.2161 20.2135 43.4844 20.4531 43.8281 20.625C44.1771 20.7969 44.5703 20.8828 45.0078 20.8828C45.4453 20.8828 45.8333 20.7969 46.1719 20.625C46.5156 20.4531 46.7839 20.2135 46.9766 19.9062C47.1745 19.5938 47.2734 19.2422 47.2734 18.8516C47.2734 18.4453 47.1771 18.0859 46.9844 17.7734C46.7917 17.4557 46.5234 17.2135 46.1797 17.0469C45.8359 16.875 45.4453 16.7917 45.0078 16.7969ZM60.2266 25.0156H58.7344V21.9062H60.2266V25.0156ZM66.4688 25.4531H64.9844V14.8359H66.4688V25.4531ZM66.8047 28.5469H56.6875V27.3203H66.8047V28.5469ZM58.1797 27.6641H56.6875V24.4219H58.1797V27.6641ZM54.8828 21.2344C56.7682 21.2188 58.4089 21.1875 59.8047 21.1406C61.2005 21.0885 62.5417 20.9792 63.8281 20.8125L63.9141 21.8828C62.5495 22.1068 61.1146 22.2552 59.6094 22.3281C58.1094 22.401 56.5547 22.4323 54.9453 22.4219L54.75 21.2344H54.8828ZM65.3516 24.1172H62.1562V23.0703H65.3516V24.1172ZM59.3359 15.375C60.013 15.3698 60.612 15.4714 61.1328 15.6797C61.6589 15.8828 62.0703 16.1719 62.3672 16.5469C62.6641 16.9219 62.8125 17.3516 62.8125 17.8359C62.8125 18.3307 62.6641 18.7604 62.3672 19.125C62.0703 19.4896 61.6589 19.7734 61.1328 19.9766C60.612 20.1797 60.013 20.2812 59.3359 20.2812C58.6536 20.2812 58.0469 20.1797 57.5156 19.9766C56.9896 19.7734 56.5807 19.4896 56.2891 19.125C55.9974 18.7604 55.8516 18.3307 55.8516 17.8359C55.8516 17.3516 55.9974 16.9219 56.2891 16.5469C56.5807 16.1667 56.9896 15.875 57.5156 15.6719C58.0469 15.4688 58.6536 15.3698 59.3359 15.375ZM59.3359 16.4844C58.9245 16.474 58.5599 16.526 58.2422 16.6406C57.9297 16.75 57.6875 16.9089 57.5156 17.1172C57.349 17.3255 57.2656 17.5651 57.2656 17.8359C57.2656 18.1068 57.349 18.3464 57.5156 18.5547C57.6875 18.7578 57.9297 18.9167 58.2422 19.0312C58.5599 19.1406 58.9245 19.1953 59.3359 19.1953C59.737 19.1953 60.0911 19.1406 60.3984 19.0312C60.7109 18.9167 60.9557 18.7578 61.1328 18.5547C61.3099 18.3464 61.3984 18.1068 61.3984 17.8359C61.3984 17.5651 61.3073 17.3255 61.125 17.1172C60.9479 16.9089 60.7057 16.75 60.3984 16.6406C60.0911 16.526 59.737 16.474 59.3359 16.4844ZM73.5625 17.75C73.5625 18.599 73.3984 19.401 73.0703 20.1562C72.7474 20.9115 72.2865 21.5703 71.6875 22.1328C71.0885 22.6901 70.3854 23.1094 69.5781 23.3906L68.8047 22.2188C69.513 21.9688 70.1354 21.6146 70.6719 21.1562C71.2083 20.6979 71.6172 20.1771 71.8984 19.5938C72.1849 19.0052 72.3281 18.3906 72.3281 17.75V16.3672H73.5625V17.75ZM73.8281 17.75C73.8281 18.3542 73.9688 18.9349 74.25 19.4922C74.5365 20.0495 74.9453 20.5417 75.4766 20.9688C76.0078 21.3958 76.6276 21.7188 77.3359 21.9375L76.5781 23.1172C75.776 22.8516 75.0755 22.4531 74.4766 21.9219C73.8776 21.3906 73.4167 20.7682 73.0938 20.0547C72.7708 19.3359 72.6094 18.5677 72.6094 17.75V16.3672H73.8281V17.75ZM76.9219 17.1406H69.1875V15.9453H76.9219V17.1406ZM80.2578 25.0547H78.7812V14.8359H80.2578V25.0547ZM80.6797 28.5469H71.1094V27.3203H80.6797V28.5469ZM72.5938 27.8906H71.1094V24.0938H72.5938V27.8906ZM93.4844 28.8516H92.0234V23.7266H93.4844V28.8516ZM99.1484 24.4922H86.3828V23.2656H99.1484V24.4922ZM93.3203 17.6172C93.3203 18.4036 93.0703 19.125 92.5703 19.7812C92.0755 20.4323 91.401 20.9766 90.5469 21.4141C89.6927 21.8464 88.737 22.1406 87.6797 22.2969L87.1328 21.1172C88.0286 21.0026 88.849 20.7682 89.5938 20.4141C90.3385 20.0599 90.9297 19.638 91.3672 19.1484C91.8047 18.6589 92.0234 18.1484 92.0234 17.6172V17.25H93.3203V17.6172ZM93.5 17.6172C93.5 18.138 93.7161 18.6458 94.1484 19.1406C94.5807 19.6354 95.1693 20.0599 95.9141 20.4141C96.6589 20.7682 97.4766 21.0026 98.3672 21.1172L97.8281 22.2969C96.7812 22.151 95.8281 21.8542 94.9688 21.4062C94.1146 20.9583 93.4401 20.4089 92.9453 19.7578C92.4505 19.1016 92.2031 18.388 92.2031 17.6172V17.25H93.5V17.6172ZM97.9375 17.7109H87.6016V16.5234H97.9375V17.7109ZM93.4844 16.9297H92.0234V14.8281H93.4844V16.9297ZM111.117 28.8125H109.641V14.8203H111.117V28.8125ZM113.289 21.6484H110.734V20.4141H113.289V21.6484ZM107.453 16.3047C107.453 17.7057 107.234 19.0156 106.797 20.2344C106.365 21.4479 105.672 22.5677 104.719 23.5938C103.771 24.6146 102.549 25.4948 101.055 26.2344L100.227 25.0781C101.513 24.4323 102.583 23.6875 103.438 22.8438C104.292 21.9948 104.932 21.0495 105.359 20.0078C105.786 18.9609 106 17.8125 106 16.5625V16.3047H107.453ZM106.75 17.5391H100.914V16.3047H106.75V17.5391Z" fill="#5A6379" style="fill:#5A6379;fill:color(display-p3 0.3548 0.3873 0.4732);fill-opacity:1;"/>
</svg>
