<svg width="40" height="40" viewBox="0 0 40 40" fill="none" xmlns="http://www.w3.org/2000/svg">
<mask id="mask0_472_13098" style="mask-type:alpha" maskUnits="userSpaceOnUse" x="0" y="0" width="40" height="40">
<rect width="40" height="40" fill="#D9D9D9" style="fill:#D9D9D9;fill:color(display-p3 0.8510 0.8510 0.8510);fill-opacity:1;"/>
</mask>
<g mask="url(#mask0_472_13098)">
<path d="M18.333 28.334H21.6663V21.6673H28.333V18.334H21.6663V11.6673H18.333V18.334H11.6663V21.6673H18.333V28.334ZM19.9997 36.6673C17.6941 36.6673 15.5275 36.2298 13.4997 35.3548C11.4719 34.4798 9.70801 33.2923 8.20801 31.7923C6.70801 30.2923 5.52051 28.5284 4.64551 26.5007C3.77051 24.4729 3.33301 22.3062 3.33301 20.0007C3.33301 17.6951 3.77051 15.5284 4.64551 13.5007C5.52051 11.4729 6.70801 9.70898 8.20801 8.20898C9.70801 6.70898 11.4719 5.52148 13.4997 4.64648C15.5275 3.77148 17.6941 3.33398 19.9997 3.33398C22.3052 3.33398 24.4719 3.77148 26.4997 4.64648C28.5275 5.52148 30.2913 6.70898 31.7913 8.20898C33.2913 9.70898 34.4788 11.4729 35.3538 13.5007C36.2288 15.5284 36.6663 17.6951 36.6663 20.0007C36.6663 22.3062 36.2288 24.4729 35.3538 26.5007C34.4788 28.5284 33.2913 30.2923 31.7913 31.7923C30.2913 33.2923 28.5275 34.4798 26.4997 35.3548C24.4719 36.2298 22.3052 36.6673 19.9997 36.6673Z" fill="#04165A" style="fill:#04165A;fill:color(display-p3 0.0166 0.0850 0.3540);fill-opacity:1;"/>
</g>
</svg>
