<svg width="25" height="24" viewBox="0 0 25 24" fill="none" xmlns="http://www.w3.org/2000/svg">
<mask id="mask0_402_8279" style="mask-type:alpha" maskUnits="userSpaceOnUse" x="0" y="0" width="25" height="24">
<rect x="0.5" width="24" height="24" fill="#D9D9D9" style="fill:#D9D9D9;fill:color(display-p3 0.8510 0.8510 0.8510);fill-opacity:1;"/>
</mask>
<g mask="url(#mask0_402_8279)">
<path d="M5.80775 21.5C5.30258 21.5 4.875 21.325 4.525 20.975C4.175 20.625 4 20.1974 4 19.6923V6.30777C4 5.8026 4.175 5.37502 4.525 5.02502C4.875 4.67502 5.30258 4.50002 5.80775 4.50002H7.19225V2.38477H8.73075V4.50002H16.3077V2.38477H17.8077V4.50002H19.1923C19.6974 4.50002 20.125 4.67502 20.475 5.02502C20.825 5.37502 21 5.8026 21 6.30777V19.6923C21 20.1974 20.825 20.625 20.475 20.975C20.125 21.325 19.6974 21.5 19.1923 21.5H5.80775ZM5.80775 20H19.1923C19.2692 20 19.3398 19.9679 19.4038 19.9038C19.4679 19.8398 19.5 19.7693 19.5 19.6923V10.3078H5.5V19.6923C5.5 19.7693 5.53208 19.8398 5.59625 19.9038C5.66025 19.9679 5.73075 20 5.80775 20ZM5.5 8.80777H19.5V6.30777C19.5 6.23077 19.4679 6.16026 19.4038 6.09626C19.3398 6.0321 19.2692 6.00002 19.1923 6.00002H5.80775C5.73075 6.00002 5.66025 6.0321 5.59625 6.09626C5.53208 6.16026 5.5 6.23077 5.5 6.30777V8.80777Z" fill="#254FDB" style="fill:#254FDB;fill:color(display-p3 0.1435 0.3094 0.8590);fill-opacity:1;"/>
</g>
</svg>
