<svg width="35" height="35" viewBox="0 0 35 35" fill="none" xmlns="http://www.w3.org/2000/svg">
<mask id="mask0_224_4347" style="mask-type:alpha" maskUnits="userSpaceOnUse" x="0" y="0" width="35" height="35">
<rect width="35" height="35" fill="#D9D9D9" style="fill:#D9D9D9;fill:color(display-p3 0.8510 0.8510 0.8510);fill-opacity:1;"/>
</mask>
<g mask="url(#mask0_224_4347)">
<path d="M12.2497 24.2864L17.4997 19.0364L22.7497 24.2864L24.2864 22.7497L19.0364 17.4997L24.2864 12.2497L22.7497 10.713L17.4997 15.963L12.2497 10.713L10.713 12.2497L15.963 17.4997L10.713 22.7497L12.2497 24.2864ZM17.5022 31.3538C15.586 31.3538 13.7848 30.9902 12.0987 30.263C10.4127 29.5358 8.94606 28.5489 7.69894 27.3022C6.45183 26.0556 5.46441 24.5896 4.73671 22.9043C4.00924 21.2189 3.64551 19.4182 3.64551 17.5022C3.64551 15.586 4.00912 13.7848 4.73634 12.0987C5.46356 10.4127 6.45049 8.94606 7.69712 7.69895C8.94375 6.45183 10.4097 5.46441 12.0951 4.73671C13.7804 4.00924 15.5811 3.64551 17.4971 3.64551C19.4134 3.64551 21.2145 4.00912 22.9006 4.73634C24.5867 5.46356 26.0533 6.45049 27.3004 7.69712C28.5475 8.94375 29.5349 10.4097 30.2626 12.0951C30.9901 13.7804 31.3538 15.5811 31.3538 17.4971C31.3538 19.4134 30.9902 21.2145 30.263 22.9006C29.5358 24.5867 28.5489 26.0533 27.3022 27.3004C26.0556 28.5475 24.5896 29.5349 22.9043 30.2626C21.2189 30.9901 19.4182 31.3538 17.5022 31.3538ZM17.4997 29.1663C20.7566 29.1663 23.5153 28.0361 25.7757 25.7757C28.0361 23.5153 29.1663 20.7566 29.1663 17.4997C29.1663 14.2427 28.0361 11.484 25.7757 9.22363C23.5153 6.96322 20.7566 5.83301 17.4997 5.83301C14.2427 5.83301 11.484 6.96322 9.22363 9.22363C6.96322 11.484 5.83301 14.2427 5.83301 17.4997C5.83301 20.7566 6.96322 23.5153 9.22363 25.7757C11.484 28.0361 14.2427 29.1663 17.4997 29.1663Z" fill="#5A6379" style="fill:#5A6379;fill:color(display-p3 0.3548 0.3873 0.4732);fill-opacity:1;"/>
</g>
</svg>
