<svg width="29" height="30" viewBox="0 0 29 30" fill="none" xmlns="http://www.w3.org/2000/svg">
<mask id="mask0_451_9065" style="mask-type:alpha" maskUnits="userSpaceOnUse" x="0" y="0" width="29" height="30">
<rect y="0.5" width="29" height="29" fill="#D9D9D9" style="fill:#D9D9D9;fill:color(display-p3 0.8510 0.8510 0.8510);fill-opacity:1;"/>
</mask>
<g mask="url(#mask0_451_9065)">
<path d="M8.95473 25.875C8.31237 25.875 7.76361 25.6475 7.30846 25.1926C6.85352 24.7374 6.62605 24.1887 6.62605 23.5463V7.19663H5.33789V5.26438H11.1346V4.125H18.8636V5.26438H24.6603V7.19663H23.3722V23.5463C23.3722 24.1971 23.1468 24.7479 22.6959 25.1987C22.245 25.6496 21.6942 25.875 21.0435 25.875H8.95473ZM21.4399 7.19663H8.5583V23.5463C8.5583 23.662 8.59544 23.757 8.66973 23.8313C8.74401 23.9056 8.83901 23.9428 8.95473 23.9428H21.0435C21.1427 23.9428 21.2335 23.9014 21.316 23.8188C21.3986 23.7363 21.4399 23.6455 21.4399 23.5463V7.19663ZM11.655 21.3664H13.587V9.77295H11.655V21.3664ZM16.4113 21.3664H18.3432V9.77295H16.4113V21.3664Z" fill="#292E39" style="fill:#292E39;fill:color(display-p3 0.1614 0.1785 0.2239);fill-opacity:1;"/>
</g>
</svg>
