<svg width="21" height="21" viewBox="0 0 21 21" fill="none" xmlns="http://www.w3.org/2000/svg">
<mask id="mask0_1457_988" style="mask-type:alpha" maskUnits="userSpaceOnUse" x="0" y="0" width="21" height="21">
<rect width="21" height="21" fill="#D9D9D9" style="fill:#D9D9D9;fill:color(display-p3 0.8510 0.8510 0.8510);fill-opacity:1;"/>
</mask>
<g mask="url(#mask0_1457_988)">
<path d="M4.375 16.625H5.33575L14.6967 7.26425L13.7358 6.30328L4.375 15.6643V16.625ZM3.5 17.5V15.2957L15.0332 3.75069C15.1228 3.67077 15.2218 3.60901 15.33 3.56541C15.4384 3.5218 15.5513 3.5 15.6688 3.5C15.7864 3.5 15.9003 3.51852 16.0105 3.55556C16.1206 3.5926 16.2223 3.65932 16.3155 3.75572L17.2493 4.69481C17.3457 4.78785 17.4116 4.88994 17.4471 5.00106C17.4824 5.11233 17.5 5.22353 17.5 5.33466C17.5 5.45322 17.48 5.56668 17.4401 5.67503C17.4001 5.78324 17.3365 5.88219 17.2493 5.97187L5.70434 17.5H3.5ZM14.2078 6.79219L13.7358 6.30328L14.6967 7.26425L14.2078 6.79219Z" fill="#5A6379" style="fill:#5A6379;fill:color(display-p3 0.3548 0.3873 0.4732);fill-opacity:1;"/>
</g>
</svg>
