<svg width="24" height="25" viewBox="0 0 24 25" fill="none" xmlns="http://www.w3.org/2000/svg">
<mask id="mask0_1017_11787" style="mask-type:alpha" maskUnits="userSpaceOnUse" x="0" y="0" width="24" height="25">
<rect y="0.5" width="24" height="24" fill="#D9D9D9" style="fill:#D9D9D9;fill:color(display-p3 0.8510 0.8510 0.8510);fill-opacity:1;"/>
</mask>
<g mask="url(#mask0_1017_11787)">
<path d="M5 19.5H6.2615L16.498 9.2635L15.2365 8.002L5 18.2385V19.5ZM3.5 21V17.6155L16.6905 4.43075C16.8417 4.29342 17.0086 4.18733 17.1913 4.1125C17.3741 4.0375 17.5658 4 17.7663 4C17.9668 4 18.1609 4.03558 18.3488 4.10675C18.5367 4.17792 18.7032 4.29108 18.848 4.44625L20.0693 5.68275C20.2244 5.82758 20.335 5.99425 20.401 6.18275C20.467 6.37125 20.5 6.55975 20.5 6.74825C20.5 6.94942 20.4657 7.14133 20.397 7.324C20.3283 7.50683 20.2191 7.67383 20.0693 7.825L6.8845 21H3.5ZM15.8562 8.64375L15.2365 8.002L16.498 9.2635L15.8562 8.64375Z" fill="#BABEC7" style="fill:#BABEC7;fill:color(display-p3 0.7281 0.7434 0.7820);fill-opacity:1;"/>
</g>
</svg>
