<svg width="24" height="24" viewBox="0 0 24 24" fill="none" xmlns="http://www.w3.org/2000/svg">
<path fill-rule="evenodd" clip-rule="evenodd" d="M12 22C6.477 22 2 17.523 2 12C2 6.477 6.477 2 12 2C17.523 2 22 6.477 22 12C22 17.523 17.523 22 12 22ZM11.237 6.136L11.347 13.732H12.652L12.762 6.136H11.237ZM11.996 17.103C12.508 17.103 12.898 16.72 12.898 16.221C12.898 15.721 12.508 15.339 11.996 15.339C11.8789 15.3369 11.7626 15.3581 11.6539 15.4015C11.5451 15.4449 11.4461 15.5096 11.3627 15.5917C11.2792 15.6739 11.213 15.7718 11.1679 15.8799C11.1228 15.9879 11.0997 16.1039 11.1 16.221C11.1 16.72 11.496 17.103 11.996 17.103Z" fill="#254FDB"/>
</svg>
