<svg width="24" height="25" viewBox="0 0 24 25" fill="none" xmlns="http://www.w3.org/2000/svg">
<mask id="mask0_1401_7319" style="mask-type:alpha" maskUnits="userSpaceOnUse" x="0" y="0" width="24" height="25">
<rect y="0.5" width="24" height="24" fill="#D9D9D9" style="fill:#D9D9D9;fill:color(display-p3 0.8510 0.8510 0.8510);fill-opacity:1;"/>
</mask>
<g mask="url(#mask0_1401_7319)">
<path d="M12 19.769C11.5875 19.769 11.2344 19.6221 10.9408 19.3282C10.6469 19.0346 10.5 18.6815 10.5 18.269C10.5 17.8565 10.6469 17.5033 10.9408 17.2095C11.2344 16.9158 11.5875 16.769 12 16.769C12.4125 16.769 12.7656 16.9158 13.0592 17.2095C13.3531 17.5033 13.5 17.8565 13.5 18.269C13.5 18.6815 13.3531 19.0346 13.0592 19.3282C12.7656 19.6221 12.4125 19.769 12 19.769ZM12 13.9997C11.5875 13.9997 11.2344 13.8528 10.9408 13.559C10.6469 13.2653 10.5 12.9122 10.5 12.4997C10.5 12.0872 10.6469 11.7341 10.9408 11.4405C11.2344 11.1466 11.5875 10.9997 12 10.9997C12.4125 10.9997 12.7656 11.1466 13.0592 11.4405C13.3531 11.7341 13.5 12.0872 13.5 12.4997C13.5 12.9122 13.3531 13.2653 13.0592 13.559C12.7656 13.8528 12.4125 13.9997 12 13.9997ZM12 8.23047C11.5875 8.23047 11.2344 8.08364 10.9408 7.78997C10.6469 7.49614 10.5 7.14297 10.5 6.73047C10.5 6.31797 10.6469 5.96489 10.9408 5.67122C11.2344 5.37739 11.5875 5.23047 12 5.23047C12.4125 5.23047 12.7656 5.37739 13.0592 5.67122C13.3531 5.96489 13.5 6.31797 13.5 6.73047C13.5 7.14297 13.3531 7.49614 13.0592 7.78997C12.7656 8.08364 12.4125 8.23047 12 8.23047Z" fill="#030304" style="fill:#030304;fill:color(display-p3 0.0117 0.0129 0.0161);fill-opacity:1;"/>
</g>
</svg>
