<svg width="21" height="19" viewBox="0 0 21 19" fill="none" xmlns="http://www.w3.org/2000/svg">
<path d="M6.125 4.4L8.925 0.775C9.125 0.508333 9.3625 0.3125 9.6375 0.1875C9.9125 0.0625 10.2 0 10.5 0C10.8 0 11.0875 0.0625 11.3625 0.1875C11.6375 0.3125 11.875 0.508333 12.075 0.775L14.875 4.4L19.125 5.825C19.5583 5.95833 19.9 6.20417 20.15 6.5625C20.4 6.92083 20.525 7.31667 20.525 7.75C20.525 7.95 20.4958 8.15 20.4375 8.35C20.3792 8.55 20.2833 8.74167 20.15 8.925L17.4 12.825L17.5 16.925C17.5167 17.5083 17.325 18 16.925 18.4C16.525 18.8 16.0583 19 15.525 19C15.4917 19 15.3083 18.975 14.975 18.925L10.5 17.675L6.025 18.925C5.94167 18.9583 5.85 18.9792 5.75 18.9875C5.65 18.9958 5.55833 19 5.475 19C4.94167 19 4.475 18.8 4.075 18.4C3.675 18 3.48333 17.5083 3.5 16.925L3.6 12.8L0.875 8.925C0.741667 8.74167 0.645833 8.55 0.5875 8.35C0.529167 8.15 0.5 7.95 0.5 7.75C0.5 7.33333 0.620833 6.94583 0.8625 6.5875C1.10417 6.22917 1.44167 5.975 1.875 5.825L6.125 4.4ZM7.35 6.125L2.5 7.725L5.6 12.2L5.5 16.975L10.5 15.6L15.5 17L15.4 12.2L18.5 7.775L13.65 6.125L10.5 2L7.35 6.125Z" fill="#030304" style="fill:#030304;fill:color(display-p3 0.0117 0.0129 0.0161);fill-opacity:1;"/>
</svg>
