<svg width="29" height="29" viewBox="0 0 29 29" fill="none" xmlns="http://www.w3.org/2000/svg">
<mask id="mask0_451_9305" style="mask-type:alpha" maskUnits="userSpaceOnUse" x="0" y="0" width="29" height="29">
<rect width="29" height="29" fill="#D9D9D9" style="fill:#D9D9D9;fill:color(display-p3 0.8510 0.8510 0.8510);fill-opacity:1;"/>
</mask>
<g mask="url(#mask0_451_9305)">
<path d="M13.291 20.542H15.7077V15.7087H20.541V13.292H15.7077V8.45866H13.291V13.292H8.45768V15.7087H13.291V20.542ZM14.4993 26.5837C12.8278 26.5837 11.257 26.2665 9.78685 25.6321C8.31671 24.9977 7.03789 24.1368 5.95039 23.0493C4.86289 21.9618 4.00195 20.683 3.36758 19.2128C2.7332 17.7427 2.41602 16.1719 2.41602 14.5003C2.41602 12.8288 2.7332 11.258 3.36758 9.78783C4.00195 8.31769 4.86289 7.03887 5.95039 5.95137C7.03789 4.86387 8.31671 4.00293 9.78685 3.36855C11.257 2.73418 12.8278 2.41699 14.4993 2.41699C16.1709 2.41699 17.7417 2.73418 19.2119 3.36855C20.682 4.00293 21.9608 4.86387 23.0483 5.95137C24.1358 7.03887 24.9967 8.31769 25.6311 9.78783C26.2655 11.258 26.5827 12.8288 26.5827 14.5003C26.5827 16.1719 26.2655 17.7427 25.6311 19.2128C24.9967 20.683 24.1358 21.9618 23.0483 23.0493C21.9608 24.1368 20.682 24.9977 19.2119 25.6321C17.7417 26.2665 16.1709 26.5837 14.4993 26.5837Z" fill="#BABEC7" style="fill:#BABEC7;fill:color(display-p3 0.7281 0.7434 0.7820);fill-opacity:1;"/>
</g>
</svg>
