<svg width="59" height="24" viewBox="0 0 59 24" fill="none" xmlns="http://www.w3.org/2000/svg">
<path d="M16.934 0.887999H19.982V23.112H16.934V0.887999ZM9.61397 8.496H13.31V11.088H9.61397V8.496ZM12.446 1.248H15.422V22.104H12.446V1.248ZM4.83797 4.512H7.23797V6.792C7.23797 8.04 7.14197 9.272 6.94997 10.488C6.77397 11.704 6.49397 12.856 6.10997 13.944C5.72597 15.016 5.22197 15.984 4.59797 16.848C3.97397 17.712 3.22197 18.424 2.34197 18.984L0.445969 16.632C1.53397 15.944 2.39797 15.08 3.03797 14.04C3.67797 12.984 4.13397 11.832 4.40597 10.584C4.69397 9.32 4.83797 8.056 4.83797 6.792V4.512ZM5.55797 4.512H7.93397V6.792C7.93397 8.024 8.06997 9.24 8.34197 10.44C8.61397 11.64 9.06197 12.736 9.68597 13.728C10.31 14.704 11.158 15.504 12.23 16.128L10.382 18.432C9.19797 17.728 8.25397 16.776 7.54997 15.576C6.84597 14.376 6.33397 13.024 6.01397 11.52C5.70997 10 5.55797 8.424 5.55797 6.792V4.512ZM1.26197 3.12H11.174V5.688H1.26197V3.12ZM25.4281 1.776H40.5241V9.624H25.4281V1.776ZM37.3801 4.272H28.5721V7.128H37.3801V4.272ZM22.9561 11.736H43.0681V14.256H22.9561V11.736ZM31.4041 9.072H34.5721V12.432H31.4041V9.072ZM25.1881 15.864H40.6441V23.136H37.4521V18.36H25.1881V15.864ZM52.0004 21.2386C50.6708 21.2386 49.4918 21.0114 48.4634 20.5568C47.4407 20.0966 46.6339 19.4631 46.043 18.6562C45.4521 17.8494 45.1509 16.9205 45.1396 15.8693H49.3839C49.4009 16.25 49.5231 16.5881 49.7504 16.8835C49.9776 17.1733 50.2873 17.4006 50.6793 17.5653C51.0714 17.7301 51.5174 17.8125 52.0174 17.8125C52.5174 17.8125 52.9577 17.7244 53.3384 17.5483C53.7248 17.3665 54.0259 17.1193 54.2418 16.8068C54.4577 16.4886 54.5629 16.125 54.5572 15.7159C54.5629 15.3068 54.4464 14.9432 54.2077 14.625C53.9691 14.3068 53.631 14.0597 53.1935 13.8835C52.7617 13.7074 52.2504 13.6193 51.6594 13.6193H49.9634V10.6193H51.6594C52.1765 10.6193 52.631 10.5341 53.0231 10.3636C53.4208 10.1932 53.7305 9.95455 53.9521 9.64773C54.1737 9.33523 54.2816 8.97727 54.2759 8.57386C54.2816 8.18182 54.1879 7.83807 53.9947 7.54261C53.8072 7.24148 53.543 7.00852 53.2021 6.84375C52.8668 6.67898 52.4776 6.59659 52.0344 6.59659C51.5685 6.59659 51.1452 6.67898 50.7646 6.84375C50.3896 7.00852 50.0913 7.24148 49.8697 7.54261C49.6481 7.84375 49.5316 8.19318 49.5202 8.59091H45.489C45.5004 7.55114 45.7901 6.63636 46.3583 5.84659C46.9265 5.05114 47.6992 4.42898 48.6765 3.98011C49.6594 3.53125 50.7788 3.30682 52.0344 3.30682C53.2844 3.30682 54.3839 3.52557 55.3327 3.96307C56.2816 4.40057 57.0202 4.99716 57.5487 5.75284C58.0771 6.50284 58.3413 7.35227 58.3413 8.30114C58.3469 9.28409 58.0259 10.0937 57.3782 10.7301C56.7362 11.3665 55.9094 11.7585 54.8981 11.9062V12.0426C56.2504 12.2017 57.2702 12.6392 57.9577 13.3551C58.6509 14.071 58.9947 14.9659 58.989 16.0398C58.989 17.0511 58.6907 17.9489 58.0941 18.733C57.5032 19.5114 56.6793 20.125 55.6225 20.5739C54.5714 21.017 53.364 21.2386 52.0004 21.2386Z" fill="#5A6379"/>
</svg>
