<svg width="59" height="24" viewBox="0 0 59 24" fill="none" xmlns="http://www.w3.org/2000/svg">
<path d="M17.2855 0.887999H20.3335V23.112H17.2855V0.887999ZM9.96553 8.496H13.6615V11.088H9.96553V8.496ZM12.7975 1.248H15.7735V22.104H12.7975V1.248ZM5.18953 4.512H7.58953V6.792C7.58953 8.04 7.49353 9.272 7.30153 10.488C7.12553 11.704 6.84553 12.856 6.46153 13.944C6.07753 15.016 5.57353 15.984 4.94953 16.848C4.32553 17.712 3.57353 18.424 2.69353 18.984L0.797531 16.632C1.88553 15.944 2.74953 15.08 3.38953 14.04C4.02953 12.984 4.48553 11.832 4.75753 10.584C5.04553 9.32 5.18953 8.056 5.18953 6.792V4.512ZM5.90953 4.512H8.28553V6.792C8.28553 8.024 8.42153 9.24 8.69353 10.44C8.96553 11.64 9.41353 12.736 10.0375 13.728C10.6615 14.704 11.5095 15.504 12.5815 16.128L10.7335 18.432C9.54953 17.728 8.60553 16.776 7.90153 15.576C7.19753 14.376 6.68553 13.024 6.36553 11.52C6.06153 10 5.90953 8.424 5.90953 6.792V4.512ZM1.61353 3.12H11.5255V5.688H1.61353V3.12ZM25.7797 1.776H40.8757V9.624H25.7797V1.776ZM37.7317 4.272H28.9237V7.128H37.7317V4.272ZM23.3077 11.736H43.4197V14.256H23.3077V11.736ZM31.7557 9.072H34.9237V12.432H31.7557V9.072ZM25.5397 15.864H40.9957V23.136H37.8037V18.36H25.5397V15.864ZM45.7127 21V17.9659L52.0792 12.392C52.5565 11.9602 52.9627 11.5653 53.2979 11.2074C53.6332 10.8437 53.8888 10.4801 54.065 10.1165C54.2411 9.74716 54.3292 9.34659 54.3292 8.91477C54.3292 8.43182 54.2241 8.01989 54.0138 7.67898C53.8036 7.33239 53.5138 7.06534 53.1445 6.87784C52.7752 6.69034 52.3519 6.59659 51.8746 6.59659C51.3917 6.59659 50.9684 6.69602 50.6048 6.89489C50.2411 7.08807 49.957 7.36932 49.7525 7.73864C49.5536 8.10795 49.4542 8.55682 49.4542 9.08523H45.457C45.457 7.89773 45.7241 6.87216 46.2582 6.00852C46.7923 5.14489 47.5423 4.48011 48.5082 4.0142C49.4798 3.54261 50.6076 3.30682 51.8917 3.30682C53.2156 3.30682 54.3661 3.52841 55.3434 3.97159C56.3207 4.41477 57.0763 5.03409 57.6104 5.82954C58.1502 6.61932 58.4201 7.53693 58.4201 8.58239C58.4201 9.24716 58.2866 9.90625 58.0195 10.5597C57.7525 11.2131 57.2724 11.9347 56.5792 12.7244C55.8917 13.5142 54.9144 14.4602 53.6474 15.5625L51.5593 17.4886V17.5994H58.6332V21H45.7127Z" fill="#5A6379"/>
</svg>
