<svg width="60" height="24" viewBox="0 0 60 24" fill="none" xmlns="http://www.w3.org/2000/svg">
<path d="M16.6644 0.887999H19.7124V23.112H16.6644V0.887999ZM9.34444 8.496H13.0404V11.088H9.34444V8.496ZM12.1764 1.248H15.1524V22.104H12.1764V1.248ZM4.56844 4.512H6.96844V6.792C6.96844 8.04 6.87244 9.272 6.68044 10.488C6.50444 11.704 6.22444 12.856 5.84044 13.944C5.45644 15.016 4.95244 15.984 4.32844 16.848C3.70444 17.712 2.95244 18.424 2.07244 18.984L0.176438 16.632C1.26444 15.944 2.12844 15.08 2.76844 14.04C3.40844 12.984 3.86444 11.832 4.13644 10.584C4.42444 9.32 4.56844 8.056 4.56844 6.792V4.512ZM5.28844 4.512H7.66444V6.792C7.66444 8.024 7.80044 9.24 8.07244 10.44C8.34444 11.64 8.79244 12.736 9.41644 13.728C10.0404 14.704 10.8884 15.504 11.9604 16.128L10.1124 18.432C8.92844 17.728 7.98444 16.776 7.28044 15.576C6.57644 14.376 6.06444 13.024 5.74444 11.52C5.44044 10 5.28844 8.424 5.28844 6.792V4.512ZM0.992438 3.12H10.9044V5.688H0.992438V3.12ZM25.1586 1.776H40.2546V9.624H25.1586V1.776ZM37.1106 4.272H28.3026V7.128H37.1106V4.272ZM22.6866 11.736H42.7986V14.256H22.6866V11.736ZM31.1346 9.072H34.3026V12.432H31.1346V9.072ZM24.9186 15.864H40.3746V23.136H37.1826V18.36H24.9186V15.864ZM44.8786 18.1023V14.8125L52.0291 3.54545H54.9524V8.01136H53.2564L49.0717 14.642V14.7784H59.4268V18.1023H44.8786ZM53.3075 21V17.0966L53.3928 15.6562V3.54545H57.3388V21H53.3075Z" fill="#5A6379"/>
</svg>
