<svg width="54" height="24" viewBox="0 0 54 24" fill="none" xmlns="http://www.w3.org/2000/svg">
<path d="M16.973 0.887999H20.021V23.112H16.973V0.887999ZM9.65303 8.496H13.349V11.088H9.65303V8.496ZM12.485 1.248H15.461V22.104H12.485V1.248ZM4.87703 4.512H7.27703V6.792C7.27703 8.04 7.18103 9.272 6.98903 10.488C6.81303 11.704 6.53303 12.856 6.14903 13.944C5.76503 15.016 5.26103 15.984 4.63703 16.848C4.01303 17.712 3.26103 18.424 2.38103 18.984L0.485031 16.632C1.57303 15.944 2.43703 15.08 3.07703 14.04C3.71703 12.984 4.17303 11.832 4.44503 10.584C4.73303 9.32 4.87703 8.056 4.87703 6.792V4.512ZM5.59703 4.512H7.97303V6.792C7.97303 8.024 8.10903 9.24 8.38103 10.44C8.65303 11.64 9.10103 12.736 9.72503 13.728C10.349 14.704 11.197 15.504 12.269 16.128L10.421 18.432C9.23703 17.728 8.29303 16.776 7.58903 15.576C6.88503 14.376 6.37303 13.024 6.05303 11.52C5.74903 10 5.59703 8.424 5.59703 6.792V4.512ZM1.30103 3.12H11.213V5.688H1.30103V3.12ZM25.4672 1.776H40.5632V9.624H25.4672V1.776ZM37.4192 4.272H28.6112V7.128H37.4192V4.272ZM22.9952 11.736H43.1072V14.256H22.9952V11.736ZM31.4432 9.072H34.6112V12.432H31.4432V9.072ZM25.2272 15.864H40.6832V23.136H37.4912V18.36H25.2272V15.864ZM53.4712 3.54545V21H49.261V7.48295H49.1587L45.2553 9.86932V6.22159L49.5593 3.54545H53.4712Z" fill="#5A6379"/>
</svg>
